<svg xmlns:xlink="http://www.w3.org/1999/xlink" xmlns="http://www.w3.org/2000/svg" viewBox="0 0 20 32" aria-hidden="true" role="presentation" width="48"  height="48" ><path d="M15.928 15.998a9.03 9.03 0 0 0 3.101-6.819c.005-5-4.05-9.055-9.05-9.055S.924 4.18.924 9.18c0 2.72 1.202 5.16 3.101 6.819a9.056 9.056 0 1 0 15.008 6.823 9.02 9.02 0 0 0-3.105-6.823M8.75 20.372a.73.73 0 0 1-.324.608.734.734 0 0 1 0 1.215c.089.058.16.138.218.231a.72.72 0 0 1 .616-.337c.262 0 .493.138.621.346a.73.73 0 0 1 1.243 0 .733.733 0 1 1 0 .772.73.73 0 0 1-1.243 0 .73.73 0 0 1-1.246-.009.7.7 0 0 1-.209.213.734.734 0 0 1 0 1.216.734.734 0 0 1 0 1.215c.107.071.191.169.244.284a.73.73 0 0 1 .652-.408.73.73 0 0 1 .653.408.73.73 0 0 1 .652-.408c.288 0 .532.169.652.408a.73.73 0 0 1 .652-.408.733.733 0 0 1 0 1.464.73.73 0 0 1-.652-.408.73.73 0 0 1-.652.408.73.73 0 0 1-.652-.408.73.73 0 0 1-.653.408.73.73 0 0 1-.652-.408.73.73 0 0 1-.652.408.733.733 0 0 1-.408-1.34.734.734 0 0 1 0-1.215.734.734 0 0 1 0-1.216.734.734 0 0 1 0-1.216.734.734 0 0 1 0-1.215.734.734 0 0 1 0-1.216.733.733 0 0 1 .408-1.34.73.73 0 0 1 .652.409.73.73 0 0 1 .652-.409.73.73 0 0 1 .653.409.73.73 0 0 1 .652-.409c.288 0 .532.17.652.409a.73.73 0 0 1 .652-.409.733.733 0 0 1 0 1.465.73.73 0 0 1-.652-.409.73.73 0 0 1-.652.409.73.73 0 0 1-.652-.409.73.73 0 0 1-.653.409.73.73 0 0 1-.652-.409.76.76 0 0 1-.244.284.73.73 0 0 1 .324.608m0-13.642a.73.73 0 0 1-.324.608.734.734 0 0 1 0 1.215c.089.058.16.138.218.231a.72.72 0 0 1 .616-.337c.262 0 .493.138.621.346a.73.73 0 0 1 1.243 0 .733.733 0 1 1 0 .772.73.73 0 0 1-1.243 0 .73.73 0 0 1-1.246-.009.7.7 0 0 1-.209.213.734.734 0 0 1 0 1.216.734.734 0 0 1 0 1.215c.107.071.191.169.244.284a.73.73 0 0 1 .652-.408.73.73 0 0 1 .653.408.73.73 0 0 1 .652-.408.73.73 0 0 1 .652.408.73.73 0 0 1 .652-.408.733.733 0 0 1 0 1.464.73.73 0 0 1-.652-.408.73.73 0 0 1-.652.408.73.73 0 0 1-.652-.408.73.73 0 0 1-.653.408.73.73 0 0 1-.652-.408.73.73 0 0 1-.652.408.733.733 0 0 1-.408-1.34.734.734 0 0 1 0-1.215.734.734 0 0 1 0-1.216.734.734 0 0 1 0-1.216.734.734 0 0 1 0-1.215.734.734 0 0 1 0-1.216.733.733 0 0 1 .408-1.34.73.73 0 0 1 .652.409.73.73 0 0 1 .652-.409.73.73 0 0 1 .653.409.73.73 0 0 1 .652-.409c.288 0 .532.17.652.409a.73.73 0 0 1 .652-.409.733.733 0 0 1 0 1.465.73.73 0 0 1-.652-.409.73.73 0 0 1-.652.409.73.73 0 0 1-.652-.409.73.73 0 0 1-.653.409.73.73 0 0 1-.652-.409.76.76 0 0 1-.244.284.73.73 0 0 1 .324.608" fill="#057382"></path></svg>