<svg width="32" height="25" viewBox="0 0 32 25" fill="none" xmlns="http://www.w3.org/2000/svg">
<mask id="mask0_3_18934" style="mask-type:luminance" maskUnits="userSpaceOnUse" x="0" y="0" width="32" height="25">
<path d="M32 0H0V24.4706H32V0Z" fill="white"/>
</mask>
<g mask="url(#mask0_3_18934)">
<path d="M32.0001 9.46459C31.9142 7.38064 30.2752 5.6756 28.2225 5.52562C27.7308 5.48615 27.2469 5.5493 26.8021 5.6756C26.5133 5.76243 26.2011 5.65192 26.0372 5.39932C23.8596 2.1392 20.1757 0 16.0001 0C11.8245 0 8.14839 2.1392 5.97863 5.39932C5.80693 5.65192 5.50254 5.75454 5.21376 5.6756C4.76888 5.5493 4.29278 5.49404 3.79327 5.52562C1.73278 5.6756 0.0937557 7.38064 9.71318e-05 9.46459C-0.0935614 11.6196 1.46741 13.443 3.49668 13.7351C3.79327 13.7746 4.02741 14.0035 4.08205 14.3035C5.04985 20.0738 10.0216 24.4706 16.0001 24.4706C21.9786 24.4706 26.9425 20.0738 27.9181 14.3035C27.965 14.0035 28.2069 13.7746 28.5035 13.7351C30.5328 13.443 32.0938 11.6275 32.0001 9.47249V9.46459Z" fill="url(#paint0_linear_3_18934)"/>
<path d="M16.008 18.8896C14.97 18.8896 13.9397 18.7712 12.5739 18.5265C11.13 18.2739 9.78752 17.5161 8.7885 16.3952C7.77387 15.2506 7.21191 13.8139 7.21191 12.3615C7.21191 10.8301 7.8363 9.41709 8.92899 8.48563C9.99045 7.58574 11.3563 7.23053 12.7768 7.47523C15.368 7.93307 16.6324 7.93307 19.2236 7.47523C20.6441 7.22263 22.01 7.57785 23.0714 8.48563C24.1641 9.41709 24.7885 10.8301 24.7885 12.3615C24.7885 13.8139 24.2265 15.2427 23.2119 16.3952C22.2207 17.5161 20.8705 18.2739 19.4265 18.5265C18.0607 18.7712 17.0305 18.8896 15.9924 18.8896H16.008ZM11.9105 8.61982C11.0909 8.61982 10.3261 8.8961 9.70948 9.41709C8.88996 10.1117 8.41387 11.1932 8.41387 12.3615C8.41387 14.7138 10.3339 16.8925 12.7846 17.3266C15.3758 17.7845 16.6402 17.7845 19.2314 17.3266C21.6822 16.8925 23.6022 14.7138 23.6022 12.3615C23.6022 11.1853 23.1339 10.1117 22.3065 9.41709C21.5261 8.75402 20.5036 8.48563 19.4344 8.67508C16.7105 9.1566 15.2978 9.1566 12.5739 8.67508C12.3475 8.63561 12.1212 8.61193 11.9026 8.61193L11.9105 8.61982Z" fill="white"/>
<path d="M19.7155 15.4402C21.0033 15.4402 22.0492 14.3824 22.0492 13.08C22.0492 11.7775 21.0033 10.7197 19.7155 10.7197C18.4277 10.7197 17.3818 11.7775 17.3818 13.08C17.3818 14.3824 18.4277 15.4402 19.7155 15.4402Z" fill="white"/>
<path d="M12.5424 12.03V11.1222C12.5424 11.0117 12.4565 10.917 12.3395 10.917H11.4497C11.3404 10.917 11.2468 11.0038 11.2468 11.1222V12.03C11.2468 12.1405 11.1609 12.2352 11.0439 12.2352H10.1541C10.0448 12.2352 9.95117 12.3221 9.95117 12.4405V13.3483C9.95117 13.4588 10.037 13.5535 10.1541 13.5535H11.0439C11.1531 13.5535 11.2468 13.6403 11.2468 13.7587V14.6665C11.2468 14.777 11.3326 14.8718 11.4497 14.8718H12.3395C12.4487 14.8718 12.5424 14.7849 12.5424 14.6665V13.7587C12.5424 13.6482 12.6282 13.5535 12.7453 13.5535H13.6351C13.7443 13.5535 13.838 13.4667 13.838 13.3483V12.4405C13.838 12.33 13.7521 12.2352 13.6351 12.2352H12.7453C12.636 12.2352 12.5424 12.1484 12.5424 12.03Z" fill="white"/>
</g>
<defs>
<linearGradient id="paint0_linear_3_18934" x1="16.0079" y1="0" x2="16.0079" y2="24.4706" gradientUnits="userSpaceOnUse">
<stop stop-color="#2FB5EB"/>
<stop offset="0.52" stop-color="#3455FF"/>
</linearGradient>
</defs>
</svg>
