<?xml version="1.0" encoding="UTF-8" standalone="no"?>
<svg
   width="110"
   viewBox="0 0 110 34"
   fill="none"
   class="sc-iFwKgL goPVUs"
   version="1.1"
   id="svg8"
   sodipodi:docname="giffgaff-logo-white.svg"
   inkscape:version="1.1.2 (0a00cf5339, 2022-02-04)"
   xmlns:inkscape="http://www.inkscape.org/namespaces/inkscape"
   xmlns:sodipodi="http://sodipodi.sourceforge.net/DTD/sodipodi-0.dtd"
   xmlns="http://www.w3.org/2000/svg"
   xmlns:svg="http://www.w3.org/2000/svg">
  <defs
     id="defs12" />
  <sodipodi:namedview
     id="namedview10"
     pagecolor="#ffffff"
     bordercolor="#666666"
     borderopacity="1.0"
     inkscape:pageshadow="2"
     inkscape:pageopacity="0.0"
     inkscape:pagecheckerboard="0"
     showgrid="false"
     inkscape:zoom="11.709091"
     inkscape:cx="55.042702"
     inkscape:cy="17.038043"
     inkscape:window-width="1920"
     inkscape:window-height="1015"
     inkscape:window-x="0"
     inkscape:window-y="39"
     inkscape:window-maximized="1"
     inkscape:current-layer="layer3" />
  <title
     id="title2">The giffgaff logo</title>
  <g
     inkscape:groupmode="layer"
     id="layer3"
     inkscape:label="Layer 2">
    <rect
       style="fill:#000000;stroke-width:2.13543;stroke-linejoin:bevel"
       id="rect330"
       width="110.21216"
       height="34.01302"
       x="0.033760902"
       y="0.10724986" />
  </g>
  <g
     inkscape:groupmode="layer"
     id="layer2"
     inkscape:label="Layer 1">
    <path
       d="m 109.177,0.743005 c -0.397,-0.1 -0.991,-0.1 -1.468,-0.1 -1.865,0 -3.433,0.397005 -4.723,1.171005 -1.767,1.171 -2.759,3.037 -2.759,5.596 v 0.497 h -5.994 v -0.278 c 0,-2.064 1.17,-3.036 3.532,-3.036 l 0.894,0.099 V 0.862005 c -0.397,-0.1 -0.894,-0.1 -1.568,-0.1 -1.866,0 -3.334,0.398005 -4.625,1.171005 -1.865,1.171 -2.758,2.957 -2.758,5.596 V 22.174 H 86.67 c -0.496,0 -0.794,-0.297 -0.794,-0.793 v -6.787 c 0,-4.82199 -2.56,-7.26299 -7.86,-7.26299 -1.567,0 -2.857,0.198 -4.028,0.695 -1.667,0.595 -2.66,1.567 -2.66,3.03599 v 1.865 h 4.129 v -0.992 c 0,-0.397 0.297,-0.794 0.893,-0.992 0.397,-0.199 0.893,-0.298 1.469,-0.298 1.17,0 2.064,0.298 2.56,0.794 0.496,0.496 0.794,1.468 0.794,2.758 v 0.1 h -0.596 c -2.56,0 -4.723,0.297 -6.49,0.992 -2.858,0.992 -4.227,2.758 -4.227,5.1 0,1.766 0.595,3.135 1.865,4.127 1.171,0.992 2.66,1.469 4.327,1.469 1.667,0 3.037,-0.497 4.228,-1.568 0.496,-0.496 0.992,-1.072 1.17,-1.667 h 0.1 l -0.1,0.794 c 0,0.595 0.199,1.071 0.497,1.468 0.397,0.397 0.992,0.596 1.766,0.596 H 93.835 V 11.16 h 5.994 v 14.447 h 4.426 V 11.16 h 4.029 V 7.52901 h -4.029 v -0.297 c 0,-2.06401 1.17,-3.036 3.532,-3.036 l 0.993,0.099 0.396,-3.552005 z M 80.777,17.65 h 0.793 v 0.496 c 0,1.072 -0.396,2.262 -1.17,3.136 -0.794,0.992 -1.767,1.567 -2.958,1.567 -0.893,0 -1.567,-0.198 -2.064,-0.694 -0.397,-0.497 -0.694,-1.072 -0.694,-1.667 0.099,-1.866 2.064,-2.838 6.093,-2.838 z M 63.589,9.49401 v 0.496 H 63.49 c -0.198,-0.397 -0.695,-0.893 -1.27,-1.27 -1.171,-0.893 -2.56,-1.37 -4.327,-1.37 -2.56,0 -4.525,0.894 -5.993,2.65999 -1.37,1.568 -2.065,3.83 -2.065,6.39 0,2.659 0.695,4.723 2.164,6.39 1.468,1.766 3.532,2.659 5.993,2.659 2.263,0 3.93,-0.794 5.101,-2.263 v 1.866 c 0,1.468 -0.496,2.659 -1.469,3.433 -0.893,0.694 -2.064,0.992 -3.532,0.992 -1.2438,9e-4 -2.4764,-0.2349 -3.632,-0.695 l -1.469,-0.595 -1.37,3.532 c 1.965,0.993 4.03,1.568 6.391,1.568 2.66,0 4.823,-0.694 6.59,-1.964 1.964,-1.469 3.036,-3.632 3.036,-6.589 V 12.352 c 0,-0.497 0.298,-0.794 0.794,-0.794 h 1.35 V 7.72801 h -4.228 c -0.695,0 -1.072,0.198 -1.469,0.496 -0.297,0.476 -0.496,0.873 -0.496,1.27 z M 55.532,12.63 c 0.793,-0.894 1.766,-1.27 3.135,-1.27 3.037,0 4.525,1.766 4.525,5.199 0,1.865 -0.397,3.234 -1.27,4.127 -0.794,0.794 -1.766,1.072 -2.957,1.072 -1.469,0 -2.56,-0.596 -3.334,-1.568 -0.774,-0.972 -1.171,-2.361 -1.171,-3.93 0,-1.567 0.397,-2.738 1.072,-3.63 z M 49.339,11.36 V 7.82601 h -3.93 v -0.296 c 0,-2.063 1.072,-3.036 3.434,-3.036 l 0.893,0.1 V 0.763005 c -0.397,-0.1 -0.893,-0.1 -1.468,-0.1 -1.866,0 -3.434,0.397005 -4.724,1.072005 -1.766,1.17 -2.759,3.036 -2.759,5.596 v 0.496 h -5.993 v -0.297 c 0,-2.063 1.071,-3.036 3.532,-3.036 l 0.993,0.1 V 0.763005 c -0.397,-0.1 -0.993,-0.1 -1.568,-0.1 -1.866,0 -3.335,0.397005 -4.625,1.072005 -1.865,1.17 -2.758,3.036 -2.758,5.596 V 22.075 H 27.03 c -0.496,0 -0.793,-0.198 -0.793,-0.793 V 10.189 c 0,-0.89299 -0.199,-1.46899 -0.596,-1.86599 -0.397,-0.297 -0.893,-0.496 -1.766,-0.496 H 15.52 c -0.694,0 -1.17,0.199 -1.468,0.496 -0.298,0.298 -0.397,0.695 -0.397,1.171 -0.1,0.198 -0.1,0.298 0,0.397 h -0.1 c -0.297,-0.397 -0.694,-0.893 -1.17,-1.27 -1.172,-0.794 -2.56,-1.27 -4.327,-1.27 -2.56,0 -4.525,0.893 -5.994,2.65899 -1.37,1.568 -1.965,3.73 -2.064,6.29 0.1,2.56 0.794,4.723 2.163,6.49 1.469,1.766 3.434,2.659 5.994,2.659 2.263,0 3.93,-0.794 5.001,-2.263 v 1.767 c 0,1.567 -0.496,2.659 -1.468,3.433 -0.893,0.694 -2.064,0.992 -3.632,0.992 -1.171,0 -2.362,-0.199 -3.533,-0.596 l -1.469,-0.595 -1.37,3.532 c 1.966,0.993 4.13,1.568 6.392,1.568 2.66,0 4.723,-0.694 6.49,-1.964 1.964,-1.469 3.036,-3.731 3.036,-6.589 V 12.352 c 0,-0.397 0.298,-0.695 0.794,-0.695 h 2.66 c 0.496,0 0.793,0.198 0.793,0.794 v 10.994 c 0,0.892 0.199,1.468 0.596,1.766 0.297,0.397 0.893,0.595 1.766,0.595 H 34.93 V 11.359 h 5.994 v 14.526 h 4.525 V 11.34 h 3.89 z M 5.716,12.63 c 0.794,-0.894 1.766,-1.37 3.235,-1.37 3.037,0 4.525,1.766 4.525,5.2 0,1.865 -0.397,3.333 -1.37,4.226 -0.694,0.695 -1.667,1.072 -2.957,1.072 -1.37,0 -2.56,-0.596 -3.334,-1.568 -0.774,-0.972 -1.17,-2.361 -1.17,-3.93 0,-1.567 0.297,-2.738 1.07,-3.63 z"
       fill="#ffffff"
       id="path4" />
    <path
       d="m 21.8311,0.643982 h 4.525 V 5.16798 h -4.525 z"
       fill="#ffffff"
       id="path6" />
  </g>
</svg>
