<?xml version="1.0" encoding="UTF-8" standalone="no"?>
<!-- Created with Inkscape (http://www.inkscape.org/) -->

<svg
   width="150.8125mm"
   height="86.518753mm"
   viewBox="0 0 150.8125 86.518753"
   version="1.1"
   id="svg5888"
   sodipodi:docname="Logo-master.svg"
   inkscape:version="1.1.1 (3bf5ae0d25, 2021-09-20)"
   xmlns:inkscape="http://www.inkscape.org/namespaces/inkscape"
   xmlns:sodipodi="http://sodipodi.sourceforge.net/DTD/sodipodi-0.dtd"
   xmlns="http://www.w3.org/2000/svg"
   xmlns:svg="http://www.w3.org/2000/svg"
   xmlns:rdf="http://www.w3.org/1999/02/22-rdf-syntax-ns#"
   xmlns:cc="http://creativecommons.org/ns#"
   xmlns:dc="http://purl.org/dc/elements/1.1/">
  <defs
     id="defs5882" />
  <sodipodi:namedview
     id="base"
     pagecolor="#ffffff"
     bordercolor="#666666"
     borderopacity="1.0"
     inkscape:pageopacity="0.0"
     inkscape:pageshadow="2"
     inkscape:zoom="1.979899"
     inkscape:cx="281.07494"
     inkscape:cy="194.45436"
     inkscape:document-units="mm"
     inkscape:current-layer="layer5"
     showgrid="false"
     showguides="false"
     fit-margin-top="0"
     fit-margin-left="0"
     fit-margin-right="0"
     fit-margin-bottom="0"
     inkscape:pagecheckerboard="0"
     inkscape:window-width="1920"
     inkscape:window-height="1020"
     inkscape:window-x="0"
     inkscape:window-y="34"
     inkscape:window-maximized="1" />
  <metadata
     id="metadata5885">
    <rdf:RDF>
      <cc:Work
         rdf:about="">
        <dc:format>image/svg+xml</dc:format>
        <dc:type
           rdf:resource="http://purl.org/dc/dcmitype/StillImage" />
        <dc:title />
      </cc:Work>
    </rdf:RDF>
  </metadata>
  <g
     inkscape:label="Layer 1"
     inkscape:groupmode="layer"
     id="layer1"
     transform="translate(-0.1889873,-86.297165)"
     style="display:inline" />
  <g
     inkscape:groupmode="layer"
     id="layer5"
     inkscape:label="Layer 2"
     style="display:inline">
    <path
       transform="translate(-0.1889873,-86.297164)"
       inkscape:connector-curvature="0"
       id="wholeOrange"
       d="m 12.068058,170.97506 c -2.619452,-0.34939 -6.5157533,-2.67841 -7.8263904,-4.67824 -0.3281902,-0.50077 -0.2809102,-0.86656 0.410387,-3.175 0.4297209,-1.43497 0.8521743,-2.78762 0.9387851,-3.0059 0.1173271,-0.2957 -0.3150957,-0.59043 -1.6961474,-1.15609 -1.019492,-0.41756 -1.8525871,-0.83428 -1.8513226,-0.92604 0.015252,-1.10679 0.9066831,-7.23078 1.4111654,-9.69448 4.631867,-22.6203 19.4695679,-41.59928 40.4341759,-51.719573 9.919748,-4.788581 20.382124,-7.147572 31.700248,-7.147572 9.902169,0 18.639467,1.668213 27.638251,5.276973 2.51363,1.008033 6.91415,3.141566 8.74824,4.241457 0.7276,0.436341 1.50151,0.875026 1.71979,0.974856 0.76768,0.351089 5.17863,3.348849 6.87916,4.675199 7.70007,6.00573 14.90556,14.29647 19.23994,22.13777 1.77509,3.21131 2.14427,3.95418 3.41876,6.87916 2.18188,5.00751 2.36042,5.71477 1.93109,7.64998 -0.20036,0.90313 -0.53074,1.7802 -0.73419,1.94905 -0.36547,0.30331 -3.13438,1.12726 -4.6733,1.39064 -0.77843,0.13322 -0.52209,-0.0697 -0.52209,-0.0697 -0.76774,-1.20362 -1.21573,-2.30997 -1.72287,-3.77624 -1.70756,-4.95277 -5.09408,-11.35586 -8.54942,-16.16488 C 120.93989,113.4711 109.23193,104.89798 96.234314,100.67144 85.542756,97.194781 75.439202,96.507583 63.905014,98.472552 45.097582,101.67659 27.648935,114.1614 18.179205,131.19016 c -2.069147,3.7208 -4.799952,10.19512 -5.560469,13.18301 -0.111119,0.43656 -0.398169,1.50812 -0.637888,2.38125 -0.870751,3.17153 -2.0022774,10.23248 -2.0022774,12.49461 0,1.4386 0.5285104,2.49373 1.6496534,3.29338 l 0.863888,0.61618 63.103125,-0.10124 c 68.788703,-0.11036 63.926913,0.0113 65.095363,-1.6296 0.47684,-0.66967 0.57365,-1.15226 0.54977,-2.74073 -0.0308,-2.04947 -0.51165,-5.6379 -1.20574,-8.9982 -0.23229,-1.12459 -0.44938,-2.18253 -0.48243,-2.35098 -0.0331,-0.16845 0.23601,-0.35084 0.5979,-0.40532 0.3619,-0.0545 1.00491,-0.34606 1.4289,-0.64797 0.59639,-0.42467 1.10628,-0.53443 2.25242,-0.48487 1.18253,0.0511 3.71318,0.49519 3.73527,0.65542 0.003,0.0191 0.3069,1.70161 0.67614,3.7389 0.76403,4.21549 1.15825,11.07391 0.68713,11.9542 -0.2744,0.51271 -1.05985,0.80305 -3.61701,1.33699 l -1.05834,0.22099 -0.18539,1.97516 c -0.33537,3.57292 -0.31645,3.5169 -1.39423,4.12853 -0.54843,0.31123 -1.66753,0.69481 -2.48689,0.85242 -1.73951,0.33459 -125.687893,0.63714 -128.120042,0.31273 z M 22.810862,158.8281 c -2.589746,-1.18055 -4.103288,-3.48474 -4.097917,-6.23861 0.0079,-4.05689 3.501444,-13.65318 6.988489,-19.19649 4.354037,-6.92156 5.909507,-8.2927 9.412553,-8.29715 3.062417,-0.004 4.075708,0.69378 9.168522,6.31277 11.224744,12.38447 13.464804,14.85265 13.706245,15.10204 1.449506,1.49723 4.050546,4.53049 4.32481,5.04346 0.523372,0.97891 0.687689,3.07324 0.326893,4.16647 -0.441053,1.3364 -1.506104,2.52697 -2.776982,3.10425 -1.002808,0.45551 -2.15483,0.48571 -18.531779,0.48571 -16.335469,0 -17.530805,-0.0311 -18.520834,-0.48245 z m 28.029189,-8.3022 c -1.013833,-1.12038 -3.345895,-3.68037 -5.010439,-5.50015 -0.727604,-0.79546 -2.453626,-2.69645 -3.835603,-4.22442 -1.381977,-1.52797 -3.12138,-3.43297 -3.865338,-4.23333 -0.743961,-0.80036 -1.697387,-1.85015 -2.11873,-2.33286 l -0.766078,-0.87766 -1.549236,2.33287 c -2.143244,3.22733 -4.463391,8.06943 -5.72277,11.9433 -0.582973,1.79325 -1.059953,3.37082 -1.059953,3.50573 0,0.14716 4.94184,0.24529 12.352626,0.24529 h 12.352626 z m 40.483697,8.13933 c -2.76025,-1.38557 -3.74382,-4.65111 -2.176973,-7.22774 0.662223,-1.089 1.517885,-2.07948 7.608999,-8.80789 4.718756,-5.21246 5.732776,-6.32908 8.619366,-9.49144 0.73546,-0.80572 1.92463,-2.1198 2.6426,-2.92016 4.03881,-4.50232 5.05338,-5.15079 8.05875,-5.15079 2.32646,0 3.38727,0.43001 5.02771,2.03805 2.11531,2.07353 6.21541,8.79959 8.12855,13.33459 1.39857,3.29361 2.77004,7.82793 3.24466,10.39847 0.39208,2.07794 0.11922,3.62707 -0.93508,5.30886 -0.78755,1.25624 -1.32618,1.69921 -3.03129,2.49288 l -1.45434,0.67695 -17.21212,0.003 -17.21211,0.003 -1.308722,-0.65694 z m 32.954822,-7.79456 c 0,-2.17061 -4.35265,-12.01402 -6.89079,-15.58336 -1.32931,-1.86937 -1.39835,-1.92389 -1.84251,-1.4552 -0.2538,0.26781 -1.74464,1.91568 -3.31297,3.66193 -1.56833,1.74625 -3.39881,3.77031 -4.06772,4.49792 -0.66892,0.7276 -2.34731,2.57307 -3.72976,4.10104 -1.38245,1.52797 -2.57307,2.84055 -2.64583,2.91684 -0.0728,0.0763 -0.60294,0.64184 -1.17818,1.25677 l -1.045884,1.11806 h 12.356824 c 12.05886,0 12.35682,-0.0124 12.35682,-0.514 z M 67.08062,149.8804 c -1.222851,-0.40804 -3.342597,-2.36784 -6.815193,-6.30094 -0.642411,-0.72761 -1.891088,-2.10549 -2.774836,-3.06196 -2.428925,-2.6288 -3.610094,-3.92427 -5.169075,-5.66929 -0.780039,-0.87313 -2.511676,-2.77813 -3.848081,-4.23334 -5.403705,-5.88408 -6.058604,-6.66186 -6.572039,-7.8052 -0.765317,-1.70425 -0.738629,-4.28276 0.06038,-5.83373 0.864124,-1.67736 1.987318,-2.75346 4.262329,-4.08362 4.690436,-2.74241 9.814267,-4.82433 15.345551,-6.23521 5.405813,-1.37887 8.109812,-0.98154 10.306939,1.51453 1.919726,2.18092 1.866561,1.58968 1.866561,20.75813 0,12.79231 -0.08092,17.326 -0.319109,17.87839 -0.707681,1.64121 -1.793036,2.70258 -3.186951,3.11653 -1.612482,0.47885 -1.587606,0.4792 -3.156474,-0.0443 z M 65.805654,125.75377 V 113.8812 l -2.062692,0.4803 c -3.30042,0.7685 -8.466373,2.68086 -10.901891,4.03573 -0.509323,0.28333 -1.372526,0.74921 -1.91823,1.0353 -0.545703,0.28608 -0.991258,0.59742 -0.990123,0.69187 0.0021,0.17201 2.431957,2.98007 4.72786,5.46368 0.672762,0.72776 2.473357,2.69229 4.001326,4.36562 1.527969,1.67334 2.839297,3.10196 2.91406,3.17472 0.07477,0.0728 1.014465,1.11455 2.088221,2.3151 1.073756,1.20055 1.99485,2.18281 2.046878,2.18281 0.05203,0 0.09459,-5.34265 0.09459,-11.87256 z m 15.742708,24.31637 c -1.69055,-0.38568 -2.957314,-1.55656 -3.664548,-3.38718 -0.389165,-1.00733 -0.436636,-2.95813 -0.437803,-17.99167 -0.0013,-18.77813 -0.04376,-18.30016 1.811374,-20.46746 1.362994,-1.59235 3.074689,-2.3475 5.321094,-2.3475 1.885887,0 2.522805,0.11834 6.759467,1.25586 6.599552,1.77196 14.571574,5.66684 16.814674,8.21514 1.8663,2.12022 2.25476,4.89872 1.06182,7.59463 -0.41351,0.93448 -3.0675,4.07731 -7.26382,8.60173 -0.74374,0.8019 -1.93829,2.11158 -2.654561,2.91042 -0.716269,0.79884 -1.906894,2.10738 -2.645833,2.90788 -0.738942,0.8005 -2.414389,2.64597 -3.723217,4.10104 -1.30883,1.45508 -2.928273,3.24091 -3.598764,3.96851 -0.670494,0.72761 -1.661033,1.82198 -2.201196,2.43194 -1.497256,1.69072 -3.817427,2.60846 -5.578687,2.20666 z m 7.788976,-16.55218 c 0.645915,-0.72357 1.777008,-1.97481 2.513542,-2.78054 2.496463,-2.73097 8.3006,-9.1637 9.19597,-10.19189 0.46871,-0.53824 0.44217,-0.56091 -2.368482,-2.02261 -3.134108,-1.62991 -7.879749,-3.45077 -10.606106,-4.06947 -0.968769,-0.21984 -1.969759,-0.46171 -2.224421,-0.53749 -0.436242,-0.12982 -0.462711,0.55567 -0.457689,11.85244 l 0.0053,11.99023 1.383728,-1.46254 c 0.761053,-0.8044 1.912207,-2.05455 2.558124,-2.77813 z"
       style="display:inline;fill:#ffaa00;fill-opacity:1;stroke-width:0.264583"
       sodipodi:nodetypes="cccccssssscccsccccccsssssssccsccsccscccccccccccccscsscccsccsscccccssccccsccsscccccccccsccscscccssccscscccccsccccsccccccccssscccssccccccccccccccccccscc"
       inkscape:label="#wholeOrange" />
  </g>
</svg>
