<?xml version="1.0" encoding="UTF-8" standalone="no"?>
<!-- Created with Inkscape (http://www.inkscape.org/) -->

<svg
   width="128"
   height="128"
   viewBox="0 0 33.866667 33.866668"
   version="1.1"
   id="svg5888"
   sodipodi:docname="Logo-favicon-square.svg"
   inkscape:version="1.1.2 (0a00cf5339, 2022-02-04)"
   xmlns:inkscape="http://www.inkscape.org/namespaces/inkscape"
   xmlns:sodipodi="http://sodipodi.sourceforge.net/DTD/sodipodi-0.dtd"
   xmlns="http://www.w3.org/2000/svg"
   xmlns:svg="http://www.w3.org/2000/svg"
   xmlns:rdf="http://www.w3.org/1999/02/22-rdf-syntax-ns#"
   xmlns:cc="http://creativecommons.org/ns#"
   xmlns:dc="http://purl.org/dc/elements/1.1/">
  <defs
     id="defs5882" />
  <sodipodi:namedview
     id="base"
     pagecolor="#ffffff"
     bordercolor="#666666"
     borderopacity="1.0"
     inkscape:pageopacity="0.0"
     inkscape:pageshadow="2"
     inkscape:zoom="3.959798"
     inkscape:cx="13.005714"
     inkscape:cy="82.201163"
     inkscape:document-units="mm"
     inkscape:current-layer="layer5"
     showgrid="false"
     showguides="false"
     fit-margin-top="0"
     fit-margin-left="0"
     fit-margin-right="0"
     fit-margin-bottom="0"
     inkscape:pagecheckerboard="0"
     inkscape:window-width="1920"
     inkscape:window-height="1015"
     inkscape:window-x="0"
     inkscape:window-y="39"
     inkscape:window-maximized="1"
     units="px"
     width="128px" />
  <metadata
     id="metadata5885">
    <rdf:RDF>
      <cc:Work
         rdf:about="">
        <dc:format>image/svg+xml</dc:format>
        <dc:type
           rdf:resource="http://purl.org/dc/dcmitype/StillImage" />
      </cc:Work>
    </rdf:RDF>
  </metadata>
  <g
     inkscape:label="Layer 1"
     inkscape:groupmode="layer"
     id="layer1"
     transform="translate(-0.1889873,-86.297165)"
     style="display:inline">
    <rect
       style="fill:#ffffff;stroke:none;stroke-width:0.564999;stroke-linejoin:bevel"
       id="rect75008"
       width="34.422104"
       height="34.49609"
       x="0.18044612"
       y="86.210472"
       inkscape:export-filename="/home/martin/Documents/Logos/logo-favicon-128.png"
       inkscape:export-xdpi="94.449997"
       inkscape:export-ydpi="94.449997" />
  </g>
  <g
     inkscape:groupmode="layer"
     id="layer5"
     inkscape:label="Layer 2"
     style="display:inline">
    <path
       inkscape:connector-curvature="0"
       id="wholeOrange"
       d="M 2.7651611,26.007423 C 2.1808953,25.929487 1.3118297,25.410007 1.0194939,24.963948 0.94629514,24.852251 0.95683514,24.770662 1.111031,24.255767 1.2068792,23.935699 1.3011075,23.633992 1.3204264,23.585305 1.3465923,23.519353 1.2501435,23.45361 0.94210244,23.32744 0.71470577,23.234305 0.52888498,23.141355 0.52916689,23.120888 0.53255752,22.87402 0.7314012,21.508071 0.84392539,20.958545 1.8770585,15.913113 5.1865905,11.679875 9.862723,9.4225544 12.07531,8.3544668 14.408931,7.8282971 16.933426,7.8282971 c 2.208667,0 4.157512,0.372093 6.164679,1.1770225 0.560664,0.2248411 1.542194,0.700723 1.951286,0.9460522 0.16229,0.097326 0.33491,0.1951732 0.383597,0.2174412 0.17123,0.07831 1.155088,0.746956 1.534388,1.042797 1.717492,1.339571 3.324669,3.188811 4.291448,4.937804 0.395931,0.716279 0.478276,0.881975 0.762549,1.534388 0.486666,1.11692 0.52649,1.274674 0.430728,1.70632 -0.04469,0.201442 -0.118381,0.397071 -0.16376,0.434733 -0.08152,0.06765 -0.69912,0.251434 -1.042375,0.310181 -0.173627,0.02971 -0.116451,-0.01555 -0.116451,-0.01555 C 30.958272,19.851019 30.858348,19.604249 30.745231,19.277199 30.364361,18.17249 29.609003,16.744288 28.838292,15.671642 27.048899,13.181229 24.437452,11.269006 21.538348,10.32628 19.153608,9.550816 16.900023,9.3975365 14.327335,9.8358212 10.132359,10.550478 6.2404587,13.3352 4.1282466,17.133446 3.6667254,17.963365 3.0576228,19.407456 2.8879898,20.0739 c -0.024781,0.09737 -0.088815,0.336385 -0.1422803,0.531136 -0.1942198,0.707405 -0.4466053,2.282343 -0.4466053,2.786908 0,0.320878 0.1178833,0.556224 0.3679535,0.734584 l 0.1926892,0.137439 14.0750791,-0.02258 c 15.343241,-0.02462 14.258825,0.0025 14.519446,-0.363479 0.106359,-0.14937 0.127952,-0.257011 0.122625,-0.611318 -0.0069,-0.457131 -0.114123,-1.257526 -0.268938,-2.007037 -0.05181,-0.250839 -0.100234,-0.486812 -0.107606,-0.524384 -0.0074,-0.03757 0.05264,-0.07825 0.133361,-0.0904 0.08073,-0.01216 0.224144,-0.07719 0.318715,-0.144528 0.133024,-0.09472 0.246754,-0.119204 0.502399,-0.10815 0.263762,0.0114 0.82822,0.110451 0.833147,0.14619 6.7e-4,0.0043 0.06845,0.379543 0.150814,0.833958 0.170415,0.940261 0.258346,2.470023 0.153263,2.666371 -0.06121,0.114359 -0.236399,0.179119 -0.806771,0.298214 l -0.236061,0.04929 -0.04135,0.440557 c -0.07481,0.796936 -0.07058,0.784441 -0.310981,0.920864 -0.122327,0.06942 -0.371941,0.154977 -0.554698,0.190132 -0.387996,0.07463 -28.0345397,0.142113 -28.5770281,0.06975 z M 5.1613313,23.298058 C 4.5836908,23.034737 4.2460979,22.52079 4.2472953,21.906543 c 0.00174,-0.904884 0.7809937,-3.045326 1.558775,-4.281755 0.9711622,-1.543846 1.3181083,-1.849677 2.0994585,-1.850669 0.6830685,-8.92e-4 0.9090818,0.154746 2.0450282,1.408056 2.503666,2.762341 3.003309,3.312866 3.057163,3.368493 0.32331,0.333955 0.903469,1.01052 0.964643,1.124937 0.116737,0.218345 0.153388,0.685483 0.07291,0.929326 -0.09838,0.298083 -0.335934,0.563638 -0.619402,0.6924 -0.223676,0.101601 -0.480633,0.108337 -4.1334922,0.108337 -3.6436073,0 -3.9102257,-0.007 -4.1310504,-0.10761 z M 11.413209,21.446262 C 11.187075,21.196363 10.666912,20.625359 10.295636,20.21946 10.133345,20.042033 9.7483587,19.61802 9.4401102,19.277208 9.1318617,18.936396 8.7438899,18.511488 8.5779508,18.332968 8.4120117,18.154449 8.1993507,17.920294 8.1053703,17.812627 l -0.170873,-0.195762 -0.345555,0.520344 c -0.4780481,0.719853 -0.9955544,1.799878 -1.276457,2.66394 -0.1300314,0.399982 -0.2364215,0.751857 -0.2364215,0.781949 0,0.03282 1.1022718,0.05472 2.7552393,0.05472 h 2.7552379 z m 9.029842,1.815468 c -0.61567,-0.30905 -0.835054,-1.037425 -0.485571,-1.612139 0.147708,-0.2429 0.338563,-0.463825 1.697178,-1.96459 1.052513,-1.162633 1.278689,-1.411694 1.92254,-2.117054 0.164044,-0.179715 0.429287,-0.472819 0.589429,-0.651339 0.900852,-1.004237 1.12715,-1.148878 1.797495,-1.148878 0.518914,0 0.755527,0.09592 1.121425,0.454585 0.471817,0.462499 1.38634,1.962739 1.813063,2.974265 0.311951,0.734636 0.617855,1.746011 0.723719,2.319367 0.08745,0.463482 0.02659,0.809013 -0.208569,1.184135 -0.175662,0.280203 -0.295803,0.379007 -0.676126,0.556034 l -0.324389,0.150993 -3.839143,6.69e-4 -3.839142,6.69e-4 -0.291909,-0.14653 z m 7.350535,-1.738567 c 0,-0.484152 -0.970853,-2.679714 -1.536983,-3.475851 -0.2965,-0.416961 -0.311899,-0.429121 -0.410969,-0.324581 -0.05661,0.05973 -0.38914,0.427291 -0.738954,0.816789 -0.349814,0.3895 -0.7581,0.840964 -0.907301,1.003256 -0.149202,0.162291 -0.523564,0.573921 -0.831918,0.914733 -0.308354,0.340812 -0.573921,0.633581 -0.590149,0.650598 -0.01624,0.01702 -0.134485,0.143161 -0.262792,0.28032 l -0.233283,0.249383 h 2.756175 c 2.689715,0 2.756174,-0.0028 2.756174,-0.114647 z M 15.03565,21.302284 C 14.762894,21.21127 14.290087,20.77414 13.515529,19.896866 13.37224,19.734574 13.093723,19.427239 12.896605,19.2139 12.354835,18.627549 12.091377,18.338596 11.743648,17.949371 11.569662,17.754621 11.183422,17.329712 10.885339,17.00513 9.6800483,15.692693 9.5339743,15.51921 9.4194526,15.264188 9.2487501,14.884058 9.2547021,14.308924 9.4329182,13.962982 9.6256607,13.588848 9.876187,13.348826 10.383626,13.052135 c 1.046197,-0.611691 2.189061,-1.076062 3.422808,-1.390756 1.20576,-0.307556 1.808884,-0.218931 2.29895,0.337814 0.428193,0.486452 0.416335,0.354576 0.416335,4.630077 0,2.85331 -0.01805,3.864545 -0.07117,3.987754 -0.157848,0.36607 -0.399935,0.602808 -0.710847,0.695138 -0.359662,0.106808 -0.354113,0.106885 -0.704047,-0.0099 z m -0.28438,-5.381417 v -2.648163 l -0.460082,0.10713 c -0.736155,0.171413 -1.888414,0.597963 -2.431653,0.900165 -0.113604,0.0632 -0.306141,0.167111 -0.427859,0.230922 -0.121719,0.06381 -0.2211,0.133255 -0.220846,0.154321 4.68e-4,0.03836 0.542445,0.664701 1.054543,1.218668 0.150059,0.162326 0.55168,0.600512 0.892491,0.973746 0.340812,0.373237 0.633302,0.691889 0.649978,0.708118 0.01668,0.01624 0.226275,0.248599 0.465775,0.51638 0.2395,0.267782 0.44495,0.486874 0.456555,0.486874 0.0116,0 0.0211,-1.191672 0.0211,-2.648161 z m 3.511392,5.423738 c -0.377075,-0.08602 -0.659624,-0.347189 -0.817373,-0.755506 -0.0868,-0.224684 -0.09739,-0.659808 -0.09765,-4.013022 -2.9e-4,-4.18844 -0.0098,-4.08183 0.404025,-4.565243 0.304014,-0.355171 0.685806,-0.523607 1.186863,-0.523607 0.420646,0 0.562709,0.0264 1.507692,0.280118 1.472023,0.395233 3.250173,1.263982 3.750494,1.832378 0.416276,0.472911 0.502921,1.092653 0.236838,1.693972 -0.09223,0.208436 -0.684202,0.90944 -1.620187,1.918607 -0.16589,0.178863 -0.432333,0.470985 -0.592096,0.649166 -0.159764,0.17818 -0.425331,0.470048 -0.590151,0.648599 -0.16482,0.178551 -0.538527,0.59018 -0.830459,0.914732 -0.291933,0.324555 -0.653148,0.722881 -0.802701,0.885172 -0.149552,0.162292 -0.37049,0.406391 -0.490974,0.542441 -0.333961,0.377113 -0.851472,0.581814 -1.244321,0.492193 z m 1.737323,-3.691944 c 0.14407,-0.161392 0.396359,-0.440479 0.560643,-0.620197 0.556833,-0.609139 1.851439,-2.043953 2.05115,-2.273289 0.104545,-0.120054 0.09863,-0.12511 -0.528287,-0.451141 -0.69906,-0.36355 -1.757569,-0.76969 -2.36568,-0.907691 -0.216082,-0.04904 -0.439352,-0.102984 -0.496155,-0.119886 -0.0973,-0.02896 -0.103207,0.123941 -0.102087,2.643673 l 0.0012,2.674407 0.308639,-0.326218 c 0.169751,-0.17942 0.426515,-0.458264 0.570586,-0.619658 z"
       style="display:inline;fill:#ffaa00;fill-opacity:1;stroke-width:0.0590149"
       sodipodi:nodetypes="cccccssssscccsccccccsssssssccsccsccscccccccccccccscsscccsccsscccccssccccsccsscccccccccsccscscccssccscscccccsccccsccccccccssscccssccccccccccccccccccscc"
       inkscape:label="#wholeOrange"
       inkscape:export-filename="/home/martin/Documents/Logos/logo-favicon-128.png"
       inkscape:export-xdpi="94.449997"
       inkscape:export-ydpi="94.449997" />
  </g>
</svg>
