<?xml version="1.0" encoding="UTF-8" standalone="no"?>
<!-- Generator: Adobe Illustrator 25.4.1, SVG Export Plug-In . SVG Version: 6.00 Build 0)  -->

<svg
   version="1.1"
   id="Layer_1"
   x="0px"
   y="0px"
   viewBox="0 0 1020.6 127.7"
   style="enable-background:new 0 0 1020.6 127.7;"
   xml:space="preserve"
   sodipodi:docname="msm-1-white.svg"
   inkscape:version="1.4.3 (0d15f75, 2025-12-25)"
   xmlns:inkscape="http://www.inkscape.org/namespaces/inkscape"
   xmlns:sodipodi="http://sodipodi.sourceforge.net/DTD/sodipodi-0.dtd"
   xmlns="http://www.w3.org/2000/svg"
   xmlns:svg="http://www.w3.org/2000/svg"><defs
   id="defs2" /><sodipodi:namedview
   id="namedview2"
   pagecolor="#ffffff"
   bordercolor="#000000"
   borderopacity="0.25"
   inkscape:showpageshadow="2"
   inkscape:pageopacity="0.0"
   inkscape:pagecheckerboard="0"
   inkscape:deskcolor="#d1d1d1"
   inkscape:zoom="1.7558299"
   inkscape:cx="510.29999"
   inkscape:cy="64.072264"
   inkscape:window-width="1920"
   inkscape:window-height="1009"
   inkscape:window-x="1912"
   inkscape:window-y="-8"
   inkscape:window-maximized="1"
   inkscape:current-layer="Layer_1" />
<style
   type="text/css"
   id="style1">
	.st0{fill:#FFFFFF;}
</style>
<g
   id="g2"
   style="fill:#000000;fill-opacity:1">
	<g
   id="g1"
   style="fill:#000000;fill-opacity:1">
		<path
   id="SVGID_1_"
   class="st0"
   d="M1020.6,20.7v15.8h-14.9v89.1h-19V36.4h-15V20.7H1020.6z M141.4,33.8c2.1,4.8,3.1,11,3.1,18.4    v41.3c0,7.4-1,13.7-3.1,18.8c-2.1,5.1-5.2,8.9-9.4,11.5c-4.2,2.6-9.4,3.9-15.7,3.9c-6,0-11.1-1.3-15.3-3.9s-7.4-6.4-9.6-11.4    c-2.2-5-3.3-11.3-3.3-18.9V52.2c0-7.3,1.1-13.4,3.3-18.3c2.2-4.9,5.4-8.7,9.7-11.3c4.3-2.7,9.4-4,15.1-4c6.3,0,11.5,1.3,15.7,4    C136.2,25.2,139.3,28.9,141.4,33.8z M125.9,49c0-3.2-0.3-5.8-1.1-7.9c-0.7-2.1-1.7-3.7-3.1-4.8s-3.2-1.7-5.4-1.7    c-2,0-3.7,0.6-5,1.7c-1.3,1.1-2.3,2.7-3.1,4.8c-0.8,2.1-1.2,4.7-1.2,7.9v47.8c0,3.4,0.4,6.2,1.2,8.2c0.8,2.1,1.8,3.6,3.1,4.6    c1.3,1,2.9,1.5,5,1.5c2.2,0,4-0.5,5.3-1.5c1.3-1,2.3-2.5,3.1-4.6c0.8-2.1,1.2-4.8,1.2-8.2V49z M920,125.5h43.4v-16.5H939V79.3    h22.1V63.7H939V36.6h24.4V20.7H920V125.5z M191.5,71.7l-0.1,8.7l-17.8-59.7h-20v104.8h18.2V66.7l17.7,58.9h20V20.7h-18.2    L191.5,71.7z M512.6,31.3c2.1,3.8,3.1,8.6,3.1,14.5v22c0,6-1,11-3,14.9s-4.8,6.7-8.5,8.4s-8.1,2.6-13.3,2.6h-9.4v31.9h-18.8V20.7    h27.6c5.2,0,9.7,0.8,13.5,2.5C507.6,24.8,510.5,27.5,512.6,31.3z M496.7,45.5c0-2.7-0.7-4.9-2.1-6.5c-1.4-1.7-3.8-2.5-7.1-2.5h-6    v40.9h6c3.3,0,5.7-0.8,7.1-2.4c1.4-1.6,2.1-3.9,2.1-7V45.5z M219.1,125.5h43.4v-16.5h-24.4V79.3h22.1V63.7h-22.1V36.6h24.4V20.7    h-43.4L219.1,125.5L219.1,125.5z M524.8,125.5h43.4v-16.5h-24.4V79.3h22.1V63.7h-22.1V36.6h24.4V20.7h-43.4V125.5z M914,20.7H893    l-18.6,49.1V20.9h-18.6v104.7h18.6V99.2l8.3-12.8l12.3,39.2h20.9l-20.9-59.4L914,20.7z M297.1,74.3L288,20.7h-19.5l19.1,76v28.9    h18.8V96.7l19.5-76h-19.1L297.1,74.3z M770.4,20.9l16.8,104.7h-19.1l-2.4-18.1h-19l-2.5,18.1h-18.8L742,20.9    C742,20.9,770.4,20.9,770.4,20.9z M763.5,91.3l-6.9-51.5h-0.7l-7,51.5H763.5z M434.6,99.7c0,2.6-0.3,4.7-0.9,6.4    c-0.6,1.7-1.5,2.9-2.7,3.8c-1.2,0.9-2.7,1.3-4.5,1.3c-2.4,0-4.1-0.4-5.2-1.3s-2-2.2-2.6-3.8c-0.6-1.7-0.9-3.8-0.9-6.4v-79h-18.9    v76.9c0,6.7,1,12.3,3,16.7s5,7.8,9,10c4,2.2,9.2,3.4,15.6,3.4c6,0,11-1.2,15-3.5c4-2.4,6.9-5.7,8.9-10.1c2-4.4,2.9-9.9,2.9-16.5    V20.7h-18.6L434.6,99.7L434.6,99.7z M846.2,44.4v16.1c0,5.3-1.2,9.7-3.5,13.3c-1.5,2.3-3.3,4.2-5.6,5.8l-0.1,0    c0.7,0.5,1.5,1,2.1,1.6c4.7,4,7,9.9,7,17.8v26.6h-19V92.6c0-2.4-0.7-4.3-2-5.8c-1.3-1.5-3.4-2.2-6.4-2.2H812v40.9h-18.8V20.7h26.9    c8,0,14.4,2,19,5.9C843.9,30.6,846.2,36.5,846.2,44.4z M818.9,69.6c3,0,5.1-0.7,6.4-2.2c1.3-1.5,2-3.5,2-6.1V44.4    c0-2.4-0.7-4.3-2-5.8c-1.3-1.5-3.4-2.2-6.4-2.2H812v33.1C812,69.6,818.9,69.6,818.9,69.6z M630.8,44.4v16.1    c0,5.3-1.2,9.7-3.5,13.3c-1.5,2.3-3.3,4.2-5.6,5.8l-0.1,0c0.7,0.5,1.5,1,2.1,1.6c4.7,4,7,9.9,7,17.8v26.6h-19V92.6    c0-2.4-0.7-4.3-2-5.8c-1.3-1.5-3.4-2.2-6.4-2.2h-6.9v40.9h-18.8V20.7h26.9c8,0,14.4,2,19,5.9C628.4,30.6,630.8,36.5,630.8,44.4z     M603.5,69.6c3,0,5.1-0.7,6.4-2.2c1.3-1.5,2-3.5,2-6.1V44.4c0-2.4-0.7-4.3-2-5.8c-1.3-1.5-3.4-2.2-6.4-2.2h-6.9v33.1    C596.6,69.6,603.5,69.6,603.5,69.6z M39.5,62.5L24.9,1.9H0v123.6h19.3l-1.6-87.4l21.8,78.5l21.8-78.5l-1.6,87.4H79V1.9H54.1    L39.5,62.5z M379,61.3c-3.5-2.8-21-11.8-22.5-12.8c-1.5-1-2.7-2.4-3.6-4.1c-1-1.7-1.5-3.9-1.6-6.6V25.3c0-1.5,0.4-2.9,1.1-4.2    s1.7-2.2,2.9-3c1.2-0.8,2.9-1.1,5-1.1c3.8,0,6.4,1.1,8,3.3c1.5,2.2,2.3,5.2,2.3,8.9v11.2H389V29.2c0-9.2-2.5-16.4-7.4-21.5    S369.7,0,360.3,0c-5.8,0-10.8,1-15,2.9s-7.5,4.9-9.8,8.9c-2.3,4-3.5,8.5-3.5,13.5v12.5c0,5.3,0.7,9.7,2.2,13.2    c1.5,3.5,3.6,6.4,6.4,8.9c2.8,2.4,21.8,12.4,23.7,13.6s3.4,2.9,4.4,4.9c1,2,1.5,4.7,1.5,8.2v13.7c0,3.1-0.8,5.6-2.4,7.5    c-1.6,1.9-4,2.9-7.2,2.9c-2.7,0-4.9-0.6-6.5-1.8s-2.8-2.8-3.5-4.8c-0.7-2-1.1-4.1-1.1-6.4V85.2h-19v12.5c0,6.5,1.1,12,3.4,16.5    c2.2,4.5,5.6,7.8,10.1,10.1c4.5,2.2,10,3.4,16.5,3.4c5.5,0,10.6-1.1,15.2-3.4s8-5.4,10.3-9.4c2.2-4,3.4-8.7,3.4-14.2V86.1    c0-5.7-0.9-10.5-2.7-14.5C385.1,67.6,382.5,64.2,379,61.3z M679.9,62.5L665.3,1.9h-24.9v123.6h19.3l-1.6-87.4l21.8,78.5l21.8-78.5    l-1.6,87.4h19.3V1.9h-24.9L679.9,62.5z"
   inkscape:label="SVGID_1_"
   style="fill:#000000;fill-opacity:1" />
	</g>
</g>
</svg>
