<svg viewBox="0 0 300 76" xmlns="http://www.w3.org/2000/svg" fill-rule="evenodd" clip-rule="evenodd" stroke-linejoin="round" stroke-miterlimit="2"><defs><style>#logo-full{opacity:0}@media all and (min-width:300px){#logo-t{opacity:0}#logo-full{opacity:1}}</style></defs><g id="logo-t" transform="matrix(.8931 0 0 .8931 -114.515 -479.5)"><path d="M170.77 536.89v68.03c0 9.396 7.614 17.01 17.01 17.01v-85.04h-17.01z" fill="#231f20" id="Fill-5146"/><path d="M192.03 570.907h17.007v-8.505H192.03v8.505z" fill="#231f20" id="Fill-5149"/><path d="M192.03 621.931c9.393 0 17.007-7.614 17.007-17.007H192.03v17.007z" fill="#231f20" id="Fill-5150"/></g><g id="logo-full" transform="matrix(.8931 0 0 .8931 -.617 -479.5)" fill="#231f20"><path id="Fill-5133" d="M277.069 621.931c9.395 0 17.01-7.614 17.01-17.007h-17.01v17.007z"/><path id="Fill-5135" d="M255.811 579.411h-.001v25.513c.001 9.393 7.615 17.007 17.008 17.007v-42.517h.001v-17.008c-9.394 0-17.008 7.611-17.008 17.005"/><path id="Fill-5137" d="M277.07 596.419c9.394 0 17.008-7.613 17.008-17.008 0-9.394-7.614-17.009-17.009-17.009v17.009h.001v17.008z"/><path id="Fill-5130" d="M234.544 562.405v59.525h17.008v-42.518c-.003-9.396-7.617-17.007-17.008-17.007"/><path id="Fill-5132" d="M213.285 536.89v85.04h17.008v-85.04h-17.008z"/><path id="Fill-5143" d="M315.336 562.402h-17.007v59.53h17.01v-42.52h-.003v-17.01z"/><path id="Fill-5144" d="M336.594 579.412c0-9.396-7.614-17.01-17.007-17.01v59.53h17.01v-42.52h-.003z"/><path id="Fill-51461" d="M170.77 536.89v68.03c0 9.396 7.614 17.01 17.01 17.01v-85.04h-17.01z"/><path id="Fill-51491" d="M192.03 570.907h17.007v-8.505H192.03v8.505z"/><path id="Fill-51501" d="M192.03 621.931c9.393 0 17.007-7.614 17.007-17.007H192.03v17.007z"/><path id="Fill-5152" d="M102.739 621.931v-59.528h-17.01v42.521h.003c0 9.393 7.614 17.007 17.007 17.007z"/><path id="Fill-5155" d="M106.99 562.403v59.528H124v-59.528h-17.01z"/><path id="Fill-5156" d="M128.248 562.402v59.528c9.393 0 17.007-7.614 17.007-17.006h.003v-42.522h-17.01z"/><path id="Fill-5158" d="M81.476 579.412c0-9.396-7.611-17.01-17.005-17.01v59.53c9.394 0 17.005-7.614 17.005-17.01h.003v-25.51h-.003z"/><path id="Fill-5160" d="M43.211 579.412v25.51h.003c0 9.396 7.611 17.01 17.005 17.01v-59.53c-9.397 0-17.008 7.614-17.008 17.01"/></g><g id="logo-n" transform="matrix(.8931 0 0 .8931 -.617 -479.5)" fill="#231f20"><path id="Fill-5140" d="M17.698 562.402H.691v59.53h17.01v-42.52h-.003v-17.01z"/><path id="Fill-5141" d="M38.955 579.412c0-9.396-7.614-17.01-17.007-17.01v59.53h17.01v-42.52h-.003z"/></g></svg>