<?xml version="1.0" encoding="utf-8"?>
<!-- Generator: Adobe Illustrator 17.0.0, SVG Export Plug-In . SVG Version: 6.00 Build 0)  -->
<!DOCTYPE svg PUBLIC "-//W3C//DTD SVG 1.0//EN" "http://www.w3.org/TR/2001/REC-SVG-20010904/DTD/svg10.dtd">
<svg version="1.0" id="Layer_1" xmlns="http://www.w3.org/2000/svg" xmlns:xlink="http://www.w3.org/1999/xlink" x="0px" y="0px"
	 width="267.058px" height="66.188px" viewBox="-17.059 0 267.058 66.188" style="enable-background:new -17.059 0 267.058 66.188;"
	 xml:space="preserve">
<g>
	<path shape-rendering="geometricPrecision" style="fill:#FFD300;" d="M177.793,15.749C173.935,6.497,164.813,0,154.154,0c-14.14,0-25.596,11.457-25.596,25.596
		s11.457,25.596,25.596,25.596c2.088,0,4.104-0.276,6.047-0.754c-1.262-3.031-1.972-6.352-1.972-9.832
		C158.244,28.555,166.582,18.476,177.793,15.749z"/>
	
		<linearGradient id="SVGID_1_" gradientUnits="userSpaceOnUse" x1="239.8286" y1="600.8655" x2="326.8356" y2="600.8655" gradientTransform="matrix(0.5807 0 0 -0.5807 60.2031 375.0601)">
		<stop  offset="0" style="stop-color:#6DCEF5"/>
		<stop  offset="1" style="stop-color:#26A9E0"/>
	</linearGradient>
	<path shape-rendering="geometricPrecision" style="fill:url(#SVGID_1_);" d="M224.403,0.537c-12.138,0-22.304,8.484-24.929,19.839c6.047,4.684,9.963,11.993,9.963,20.231
		c0,1.987-0.247,3.901-0.682,5.757c4.322,3.35,9.745,5.366,15.648,5.366c14.125,0,25.596-11.457,25.596-25.596
		S238.542,0.537,224.403,0.537z"/>
	<g>
		<path shape-rendering="geometricPrecision" style="fill:#FFFFFF;" d="M217.862,29.135c-1.088,0-1.9-2.712-1.9-3.582c0-1.856,6.076-1.624,6.076-5.888
			c0-1.639-1.769-3.031-3.539-3.031c-2.219,0-3.756,1.581-4.568,1.581c-0.943,0-1.639-1.682-1.639-2.538
			c0-2.407,6.294-4.989,11.645-4.989c3.626,0,11.051,1.131,11.051,5.931c0,3.901-3.394,4.713-3.394,5.757
			c0,1.624,7.614,0.131,7.614,8.02c0,5.757-5.293,11.776-17.258,11.776c-2.262,0-10.239-0.45-10.239-3.713
			c0-1.45,1.131-2.451,2.538-2.451c1.262,0,2.77,0.812,5.612,0.812c2.857,0,6.062-1.537,6.062-4.351c0-2.625-2.451-3.8-4.8-3.8
			C219.443,28.671,218.225,29.135,217.862,29.135z"/>
	</g>
	
		<linearGradient id="SVGID_2_" gradientUnits="userSpaceOnUse" x1="172.2008" y1="575.9547" x2="255.8364" y2="575.9547" gradientTransform="matrix(0.5807 0 0 -0.5807 60.2031 375.0601)">
		<stop  offset="0" style="stop-color:#C72127"/>
		<stop  offset="1" style="stop-color:#EE4036"/>
	</linearGradient>
	<path shape-rendering="geometricPrecision" style="fill:url(#SVGID_2_);" d="M198.806,26.133c0-1.987,0.247-3.901,0.682-5.757c-4.322-3.35-9.745-5.366-15.648-5.366
		c-2.088,0-4.104,0.276-6.047,0.754c1.262,3.031,1.958,6.352,1.958,9.832c0,12.051-8.339,22.13-19.549,24.842
		c3.858,9.252,12.979,15.749,23.639,15.749c12.153,0,22.304-8.484,24.929-19.839C202.722,41.679,198.806,34.37,198.806,26.133z"/>
	<path shape-rendering="geometricPrecision" style="fill:#9E1F63;" d="M199.488,20.376c-0.421,1.856-0.682,3.771-0.682,5.757c0,8.237,3.916,15.546,9.963,20.216
		c0.421-1.856,0.682-3.771,0.682-5.757C209.436,32.369,205.535,25.06,199.488,20.376z"/>
	
		<linearGradient id="SVGID_3_" gradientUnits="userSpaceOnUse" x1="168.8045" y1="588.9033" x2="205.8649" y2="588.9033" gradientTransform="matrix(0.5807 0 0 -0.5807 60.2031 375.0601)">
		<stop  offset="0" style="stop-color:#F58A1F"/>
		<stop  offset="1" style="stop-color:#FCB813"/>
	</linearGradient>
	<path shape-rendering="geometricPrecision" style="fill:url(#SVGID_3_);" d="M177.793,15.749c-7.962,1.929-14.459,7.585-17.562,15.01c0.044,0.435,0.102,0.856,0.16,1.189
		c0.812,3.974,5.844,0.856,5.844,4.017c0,1.566-1.378,1.958-2.683,2.277c-1.334,0.29-3.335,0.508-5.25,0.638
		c-0.044,0.566-0.073,1.131-0.073,1.697c0,3.481,0.696,6.802,1.972,9.832c11.21-2.726,19.549-12.805,19.549-24.842
		C179.75,22.101,179.054,18.78,177.793,15.749z"/>
	<path shape-rendering="geometricPrecision" style="fill:#FFFFFF;" d="M159.984,24.32c0-1.479,0.044-2.987,0.087-5.366c0.087-4.206,3.35-2.596,3.35-4.829
		c0-1.914-2.32-2.016-3.713-2.016c-6.613,0-16.663,2.465-16.663,5.54c0,0.986,0.841,1.465,1.784,1.465
		c0.537,0,1.073-0.087,1.653-0.087c2.19,0,2.364,0.798,2.364,2.813v6.091c0,5.134-0.754,6.294-2.451,6.294
		c-0.754,0-1.566-0.276-2.32-0.276c-1.03,0-2.016,0.711-2.016,1.784c0,3.089,10.906,3.306,12.457,3.306
		c1.015,0,2.378-0.058,3.771-0.16c0.189-2.871,0.856-5.598,1.914-8.136C160.013,28.758,159.984,25.93,159.984,24.32z"/>
	<path shape-rendering="geometricPrecision" style="fill:#FFE6CB;" d="M166.234,35.98c0-3.176-5.047-0.044-5.844-4.017c-0.058-0.334-0.116-0.754-0.16-1.189
		c-1.059,2.538-1.726,5.264-1.914,8.136c1.914-0.145,3.901-0.363,5.25-0.638C164.857,37.938,166.234,37.532,166.234,35.98z"/>
	<g>
		<path shape-rendering="geometricPrecision" style="fill:#FFFFFF;" d="M196.239,47.799c0,5.279-2.987,8.426-4.641,8.426c-2.277,0-0.29-2.262-4.061-2.262h-13.676
			c-0.754,0-2.407,0.102-2.407-1.218c0-0.754-0.087-0.754,3.031-4.09c2.117-2.262,7.135-8.136,7.135-11.486
			c0-1.653-0.87-2.683-2.32-2.683c-2.523,0-3.031,2.726-4.931,2.726c-1.204,0-2.697-1.32-2.697-2.726
			c0-4.133,7.802-8.237,12.892-8.237c7.005,0,9.905,3.669,9.905,7.396c0,6.018-6.961,9.876-6.961,11.805
			c0,1.088,1.001,1.653,1.827,1.653c2.944,0,3.684-2.828,5.061-2.828C195.906,44.261,196.239,46.436,196.239,47.799z"/>
	</g>
	<g>
		<g>
			<path shape-rendering="geometricPrecision" style="fill:#FFFFFF;" d="M-0.729,24.828c1.305,0,2.117,0.102,2.436,0.319s0.479,0.754,0.479,1.61
				c0,0.754,0.261,1.131,0.769,1.131c0.218,0,0.928-0.392,2.146-1.16c0.914-0.595,2.088-1.088,3.524-1.479
				c1.421-0.392,2.712-0.595,3.872-0.595c2.726,0,5.148,0.899,7.295,2.683c1.624,1.363,2.886,3.089,3.785,5.163
				c0.943,2.175,1.407,4.467,1.407,6.874c0,5.134-1.827,9.368-5.467,12.689c-2.813,2.581-6.004,3.887-9.571,3.887
				c-1.827,0-3.698-0.406-5.627-1.218c-0.392-0.16-0.696-0.247-0.928-0.247c-0.638,0-0.957,0.609-0.957,1.827
				c0,1.61,0.566,2.77,1.697,3.481c1.044,0.667,1.682,1.131,1.885,1.363c0.203,0.232,0.305,0.624,0.305,1.175
				c0,1.218-0.725,2.161-2.146,2.828c-1.436,0.667-3.466,1.001-6.076,1.001c-4.655,0-8.716-0.885-12.211-2.654
				c-1.784-0.899-2.668-2.001-2.668-3.336c0-0.609,0.131-1.073,0.406-1.392c0.261-0.319,0.783-0.653,1.552-1.001
				c1.117-0.493,1.798-1.378,2.045-2.654c0.247-1.291,0.435-4.974,0.566-11.065c-0.145-5.018-0.348-7.831-0.58-8.44
				c-0.087-0.203-0.203-0.334-0.363-0.392c-0.16-0.058-0.696-0.174-1.595-0.334c-0.682-0.116-1.247-0.421-1.668-0.899
				c-0.435-0.479-0.638-1.059-0.638-1.726c0-0.812,0.305-1.537,0.899-2.161c0.595-0.624,1.581-1.233,2.929-1.813
				C-7.98,26.017-3.804,24.871-0.729,24.828z M2.461,36.386l-0.479,8.411c-0.015,0.348-0.029,0.682-0.029,1.015
				c0,0.638,0.29,1.146,0.87,1.523c0.58,0.392,1.349,0.58,2.32,0.58c2.958,0,4.438-2.306,4.438-6.932
				c0-3.002-0.624-5.105-1.871-6.323c-0.769-0.754-1.697-1.131-2.77-1.131C3.404,33.5,2.592,34.472,2.461,36.386z"/>
			<path shape-rendering="geometricPrecision" style="fill:#FFFFFF;" d="M45.678,30.875v9.818c0,4.336,0.073,6.874,0.203,7.585c0.145,0.711,0.667,1.262,1.595,1.653
				c0.798,0.319,1.32,0.638,1.595,0.914c0.261,0.29,0.406,0.696,0.406,1.218c0,0.667-0.247,1.291-0.754,1.827
				c-0.508,0.551-1.175,0.943-2.001,1.16c-1.537,0.45-4.148,0.667-7.802,0.667c-4.133,0-7.034-0.29-8.701-0.885
				c-0.769-0.261-1.407-0.682-1.9-1.233c-0.493-0.566-0.74-1.146-0.74-1.755c0-0.493,0.131-0.87,0.406-1.131
				c0.261-0.261,0.856-0.58,1.755-0.943c0.841-0.348,1.349-1.291,1.537-2.842c0.348-2.654,0.508-6.424,0.508-11.312
				c0-4.974-0.145-8.165-0.45-9.6c-0.305-1.421-1.044-2.48-2.248-3.176c-0.899-0.493-1.523-0.957-1.842-1.392
				c-0.334-0.435-0.493-0.972-0.493-1.61c0-1.001,0.508-1.871,1.508-2.61s2.61-1.436,4.815-2.059
				c1.479-0.435,3.394-0.841,5.757-1.218c2.349-0.392,4.075-0.58,5.148-0.58c1.697,0,2.538,1.001,2.538,3.002
				c0,0.653-0.102,2.146-0.319,4.496C45.881,24.494,45.721,27.844,45.678,30.875z"/>
			<path shape-rendering="geometricPrecision" style="fill:#FFFFFF;" d="M69.708,24.639c3.727,0,6.889,0.899,9.484,2.683c1.378,0.957,2.335,2.059,2.871,3.292
				c0.551,1.233,0.812,2.929,0.812,5.09l-0.058,4.554c0,3.161,0.232,5.206,0.711,6.149c0.232,0.45,0.464,0.74,0.682,0.856
				c0.218,0.116,0.667,0.232,1.349,0.334c0.682,0.102,1.03,0.537,1.03,1.291c0,0.972-0.406,2.001-1.233,3.06
				c-0.827,1.059-1.885,1.943-3.19,2.654c-1.61,0.899-3.292,1.349-5.047,1.349c-2.248,0-4.032-0.74-5.337-2.204
				c-0.45-0.537-0.87-0.798-1.247-0.798c-0.435,0-1.001,0.261-1.697,0.769c-2.146,1.494-4.568,2.233-7.295,2.233
				c-2.813,0-5.076-0.566-6.816-1.711c-1.131-0.754-2.03-1.74-2.697-2.944c-0.667-1.218-1.001-2.48-1.001-3.8
				c0-2.117,0.899-3.988,2.697-5.627c2.799-2.567,7.005-3.858,12.602-3.887c1.247,0,2.03-0.116,2.349-0.348
				c0.319-0.232,0.479-0.783,0.479-1.639c0-2.161-0.232-3.727-0.711-4.699c-0.479-0.972-1.247-1.45-2.32-1.45
				c-0.638,0-1.218,0.189-1.726,0.551c-0.508,0.363-1.131,1.044-1.885,2.016c-1.9,2.581-3.901,3.887-5.975,3.887
				c-1.044,0-1.9-0.29-2.567-0.885c-0.667-0.595-1.001-1.363-1.001-2.32c0-0.972,0.406-1.958,1.233-2.929
				c0.827-0.972,1.943-1.827,3.365-2.567C61.442,25.625,65.488,24.639,69.708,24.639z M67.561,42.346
				c-0.943,0-1.769,0.363-2.465,1.102s-1.044,1.61-1.044,2.625c0,0.972,0.247,1.769,0.74,2.364c0.493,0.595,1.146,0.899,1.958,0.899
				c1.711,0,2.567-1.378,2.567-4.133c0-1.117-0.131-1.871-0.363-2.262C68.707,42.564,68.243,42.361,67.561,42.346z"/>
			<path shape-rendering="geometricPrecision" style="fill:#FFFFFF;" d="M117.434,39.707L113.2,50.801c-1.044,2.755-2.103,5.003-3.161,6.744
				c-1.059,1.74-2.262,3.219-3.611,4.452c-2.799,2.523-6.163,3.785-10.079,3.785c-3.176,0-5.743-0.798-7.715-2.378
				c-1.523-1.218-2.277-2.784-2.277-4.67c0-1.566,0.537-2.886,1.595-3.959c1.059-1.073,2.364-1.61,3.901-1.61
				s2.784,0.493,3.727,1.465c0.45,0.45,0.754,0.841,0.899,1.189c0.145,0.348,0.377,1.117,0.682,2.291
				c0.232,0.899,0.769,1.349,1.61,1.349c0.667,0,1.218-0.276,1.668-0.827c0.45-0.551,0.682-1.233,0.682-2.045
				c0-0.957-0.551-2.552-1.668-4.8L91.708,36.11c-0.812-1.624-1.421-2.654-1.827-3.06c-0.406-0.406-1.305-0.914-2.697-1.494
				c-0.435-0.16-0.798-0.479-1.102-0.957c-0.305-0.479-0.464-0.943-0.464-1.392c0-1.813,1.9-3.045,5.685-3.698
				c2.523-0.435,5.409-0.638,8.643-0.638c2.277,0,4.061,0.218,5.366,0.667c1.755,0.595,2.639,1.595,2.639,3.031
				c0,0.508-0.247,1.117-0.74,1.798c-0.479,0.653-0.711,1.233-0.711,1.74c0,0.493,0.116,1.001,0.334,1.523
				c0.232,0.537,0.696,1.421,1.436,2.683c0.812,1.421,1.537,2.146,2.146,2.146c0.667,0,1.349-0.624,2.059-1.885
				c0.711-1.247,1.059-2.465,1.059-3.626c0-0.943-0.261-1.697-0.798-2.291c-0.812-0.914-1.218-1.697-1.218-2.349
				c0-1.044,0.725-1.871,2.19-2.494c1.45-0.624,3.408-0.928,5.844-0.928c4.539,0,6.816,1.044,6.816,3.118
				c0,0.754-0.232,1.363-0.696,1.813c-0.464,0.464-1.305,0.885-2.523,1.305c-1.03,0.363-1.842,0.972-2.436,1.827
				C119.726,34.327,118.653,36.575,117.434,39.707z"/>
		</g>
	</g>
</g>
</svg>
