<svg xmlns:xlink="http://www.w3.org/1999/xlink" width="36" height="36" viewBox="0 0 36 36" fill="none" xmlns="http://www.w3.org/2000/svg"><g fill="none"><path d="M18 36C27.9411 36 36 27.9411 36 18C36 8.05887 27.9411 0 18 0C8.05887 0 0 8.05887 0 18C0 27.9411 8.05887 36 18 36Z" fill="#E60000"></path><path d="M18.1397 28.0383C13.1942 28.0548 8.04812 23.8333 8.02653 17.0552C8.0151 12.5733 10.4332 8.25902 13.5244 5.69358C16.5395 3.19672 20.6696 1.59522 24.4161 1.58252C24.8988 1.58252 25.403 1.62062 25.7116 1.72603C22.4362 2.40549 19.8288 5.45354 19.8403 8.91181C19.8398 9.01001 19.847 9.10811 19.8619 9.20518C25.3433 10.54 27.8312 13.8471 27.8465 18.423C27.8617 22.9989 24.2498 28.018 18.1397 28.0383Z" fill="#FFFFFF"></path></g><defs><clipPath><rect width="36" height="36" fill="white"></rect></clipPath></defs></svg>