<svg width="600" height="200" xmlns="http://www.w3.org/2000/svg"><g fill="#2D3CFF" fill-rule="nonzero"><path d="M516.865 124.632c6.035 6.864 14.493 10.295 25.382 10.295 20.453 0 29.116-13.925 29.18-14.03l.003 11.668c0 .06-.006.118-.007.178h22.652V44.76h-22.719v45.439c0 8.048-2.041 14.317-6.123 18.813-4.083 4.5-9.319 6.745-15.709 6.745-6.509 0-11.301-2.01-14.377-6.035-3.079-4.02-4.615-9.82-4.615-17.394l-.003-47.568h-22.722l.006 49.698c0 13.254 3.017 23.313 9.052 30.174M376.187 44.76v45.439c0 8.048-2.04 14.318-6.123 18.813-4.083 4.5-9.319 6.745-15.709 6.745-6.508 0-11.3-2.01-14.377-6.035-3.078-4.02-4.614-9.82-4.614-17.394l-.009-7.751v-1.464c0-13.253-3.018-23.313-9.053-30.174-6.034-6.864-14.493-10.295-25.382-10.295-20.452 0-29.115 13.925-29.178 14.03L271.739 5h-22.647v127.81h22.719V87.373c0-8.049 2.041-14.318 6.124-18.814 4.082-4.499 9.318-6.745 15.708-6.745 6.509 0 11.301 2.01 14.377 6.035 3.079 4.021 4.615 9.82 4.615 17.394v.278l.01 8.937c0 13.254 3.017 23.313 9.052 30.174 6.035 6.864 14.493 10.295 25.381 10.295 20.453 0 29.116-13.925 29.18-14.03l.003 11.668c0 16.297-9.022 28.596-24.58 28.596-14.814 0-23.147-7.962-26.666-20l-20.187 8.705c5.557 18.89 23.52 31.482 46.298 31.482 28.706 0 47.78-18.519 47.78-47.964V44.76h-22.719zM406.62 88.967c0-24.077 17.409-46.148 46.803-46.148 29.268 0 46.677 22.07 46.677 46.148 0 24.077-17.41 46.147-46.677 46.147-29.394 0-46.802-22.07-46.802-46.147m71.323 0c0-13.674-9.33-26.398-24.52-26.398-15.312 0-24.523 12.724-24.523 26.398s9.21 26.397 24.522 26.397c15.192 0 24.521-12.723 24.521-26.397M168.713 29.62c2.693-2.734 4.04-6.185 4.04-10.356 0-4.167-1.347-7.587-4.04-10.258C166.02 6.336 162.577 5 158.39 5c-4.191 0-7.63 1.336-10.323 4.006-2.693 2.67-4.04 6.09-4.04 10.258 0 4.17 1.347 7.622 4.04 10.357 2.693 2.736 6.132 4.103 10.323 4.103 4.187 0 7.63-1.367 10.323-4.103M147.03 132.797h22.719V44.76h-22.72zM239.748 132.797V113.45h-11.005c-4.498 0-7.662-.799-9.496-2.397-1.836-1.596-2.751-4.525-2.751-8.785V63.752h23.785V44.759h-23.785V21.153h-22.72v23.606H178.69v18.993h15.087v38.338c0 11.48 2.778 19.466 8.342 23.962 5.561 4.5 12.957 6.745 22.187 6.745h15.442zM115.951 44.76l-15.442 63.365-17.75-63.365H57.557l-17.75 63.365L24.54 44.76H2l25.737 88.037h23.606l18.813-65.85 18.816 65.85h23.606l25.915-88.037z"/></g></svg>